<svg width="90" height="90" viewBox="0 0 90 90" fill="none" xmlns="http://www.w3.org/2000/svg">
<path fill-rule="evenodd" clip-rule="evenodd" d="M45 90C69.8528 90 90 69.8528 90 45C90 20.1472 69.8528 0 45 0C20.1472 0 0 20.1472 0 45C0 69.8528 20.1472 90 45 90ZM35.5703 88.3573C35.9064 88.5516 36.2787 88.6694 36.6624 88.7028C37.1358 88.7405 37.6102 88.6433 38.0341 88.422C38.4579 88.2006 38.8152 87.8634 39.067 87.447C41.8185 82.9419 51.5295 67.2339 68.2001 40.323C69.333 38.1104 68.385 37.1177 66.5585 36.9981L50.5237 35.9336L56.4428 5.37484C56.5689 4.73726 56.4791 4.07421 56.1885 3.49705C55.9055 2.92555 55.4398 2.47326 54.8706 2.21728C54.3075 1.96527 53.6755 1.93128 53.0902 2.12157C52.5049 2.31509 52.0024 2.71237 51.6682 3.24585C46.36 11.8865 41.5965 19.6198 37.3839 26.4589C31.5319 35.9595 26.7427 43.7346 23.0323 49.8196C22.8935 49.9631 20.1652 53.4316 24.1883 53.7067L40.1653 54.7712L34.2462 85.318C34.1642 85.7071 34.1635 86.1099 34.244 86.4994C34.3246 86.8889 34.4845 87.2561 34.7132 87.5765C34.942 87.8969 35.2341 88.1631 35.5703 88.3573Z" fill="#111217"/>
</svg>
